# xmcd
#
# Track frame offsets:
#	150
#	12105
#	24684
#	39336
#	50163
#	63357
#	74870
#	85704
#	100492
#	121750
#	137920
#	152907
#	167137
#	190117
#
# Disc length: 2720 seconds
#
# Revision: 1
# Processed by: cddbd v1.5.2PL0 Copyright (c) Steve Scherf et al.
# Submitted via: audiograbber 1.83.01
#
DISCID=c20a9e0e
DTITLE=Dale Hooper - You Asked For It Vol 3
DYEAR=2010
DGENRE=Country
TTITLE0=Ghostriders
TTITLE1=18 Yellow Roses
TTITLE2=Heartaches By The Number
TTITLE3=Daddy Sang Bass
TTITLE4=Cottonfields
TTITLE5=I'll Be There
TTITLE6=Six Days On The Road
TTITLE7=After The Lights Go Out
TTITLE8=Walk The Line (Medley)
TTITLE9=Little Boy Lost
TTITLE10=Passin' Thru
TTITLE11=I'll Leave This World Loving You
TTITLE12=Waltzing Matilda
TTITLE13=*BONUS TRACK* Ain't No Good Chain Gang (Duet With Bobby Bare)
EXTD=
EXTT0=
EXTT1=
EXTT2=
EXTT3=
EXTT4=
EXTT5=
EXTT6=
EXTT7=
EXTT8=
EXTT9=
EXTT10=
EXTT11=
EXTT12=
EXTT13=
PLAYORDER=
